<?xml version="1.0" encoding="UTF-8" standalone="no"?>
<!DOCTYPE svg PUBLIC "-//W3C//DTD SVG 1.1//EN" "http://www.w3.org/Graphics/SVG/1.1/DTD/svg11.dtd">
<svg width="100%" height="100%" viewBox="0 0 2300 2000" version="1.1" xmlns="http://www.w3.org/2000/svg" xmlns:xlink="http://www.w3.org/1999/xlink" xml:space="preserve" xmlns:serif="http://www.serif.com/" style="fill-rule:evenodd;clip-rule:evenodd;stroke-linejoin:round;stroke-miterlimit:2;">
    <g>
        <path d="M1344.51,991.906C1344.51,991.906 1248.77,1183.45 1151.51,1315.66C1112.81,1368.29 1073.88,1411.5 1040.64,1429.53C1008.11,1447.17 980.572,1474.57 957.784,1504.94C898.765,1583.57 871.529,1682.01 871.529,1682.01L622.833,1305.76C622.833,1305.76 631.319,937.977 661.18,876.456C704.7,786.804 725.723,605.662 742.442,569.6C754.845,542.847 790.266,404.657 793.663,394.502C795.138,390.126 806.925,383.417 822.229,383.429C834.512,383.429 855.366,395.3 860.625,419.696C887.22,543.004 855.208,624.339 855.571,627.954C864.952,722.72 836.749,793.066 856.526,811.695C857.264,812.384 858.629,812.058 860.564,810.825C894.849,788.811 1107.64,478.582 1133.85,471.884C1161.53,464.824 1344.51,991.906 1344.51,991.906Z" style="fill:rgb(255,178,125);fill-rule:nonzero;"/>
        <path d="M946.348,1607.55C946.348,1607.55 942.961,1774.74 933.265,1999.93L305.951,1999.93C449.344,1694.15 574.006,1436.79 574.006,1436.79C574.006,1436.79 931.191,1447.7 946.348,1607.55Z" style="fill:rgb(20,184,166);fill-rule:nonzero;"/>
        <path d="M1561.95,343.671L1484.93,456.573L1409.36,567.37C1404.75,572.93 1399.42,574.863 1393.65,574.307C1375.51,572.586 1353.08,546.429 1335.59,531.947L1333.82,530.491C1310.76,511.416 1307.5,476.946 1326.57,453.899L1442.08,314.271L1442.08,314.258L1476.34,272.851C1495.42,249.792 1529.89,246.535 1552.93,265.61L1554.71,267.066C1577.77,286.142 1581.02,320.612 1561.95,343.671Z" style="fill:rgb(255,178,125);fill-rule:nonzero;"/>
        <path d="M1484.93,456.573L1409.36,567.37C1404.75,572.93 1399.42,574.863 1393.65,574.307L1442.08,314.271C1442.19,315.727 1450.42,432.402 1484.93,456.573Z" style="fill:rgb(239,162,111);fill-rule:nonzero;"/>
        <path d="M1151.51,1315.66C1112.81,1368.29 1073.88,1411.5 1040.64,1429.53C1008.11,1447.17 980.572,1474.57 957.784,1504.94C931.572,1492.72 901.694,1478.39 872.49,1464.19C836.927,1446.91 835.563,1396.41 870.395,1377.7C870.735,1377.52 871.069,1377.33 871.396,1377.14C904.036,1358.47 937.482,1292.52 937.482,1292.52L1151.51,1315.66Z" style="fill:rgb(239,162,111);fill-rule:nonzero;"/>
        <path d="M791.931,400.224L771.78,481.576C771.78,481.576 789.396,488.782 800.708,483.187C812.021,477.591 821.252,404.604 791.931,400.224Z" style="fill:rgb(255,193,151);fill-rule:nonzero;"/>
        <path d="M1371.42,1354.1L938.119,1354.1C895.499,1354.1 860.627,1319.23 860.627,1276.61L860.627,324.188C860.627,281.567 895.499,246.695 938.119,246.695L1371.42,246.695C1414.04,246.695 1448.91,281.567 1448.91,324.188L1448.91,1276.61C1448.91,1319.23 1414.04,1354.1 1371.42,1354.1Z" style="fill:rgb(43,71,139);fill-rule:nonzero;"/>
        <path d="M1419.76,331.523L1419.76,1261.87C1419.76,1293.43 1394.12,1319.25 1362.8,1319.25L946.74,1319.25C915.418,1319.25 889.789,1293.43 889.789,1261.87L889.789,331.523C889.789,299.96 915.418,274.144 946.74,274.144L1362.8,274.144C1394.12,274.144 1419.76,299.96 1419.76,331.523Z" style="fill:rgb(192,216,251);fill-rule:nonzero;"/>
        <path d="M1362.8,274.144L951.887,1319.25L946.74,1319.25C915.418,1319.25 889.789,1293.43 889.789,1261.87L889.789,331.523C889.789,299.96 915.418,274.144 946.74,274.144L1362.8,274.144Z" style="fill:rgb(203,225,253);fill-rule:nonzero;"/>
        <path d="M1241.72,308.742L1067.83,308.742C1053.66,308.742 1042.08,297.153 1042.08,282.988L1042.08,278.939C1042.08,264.775 1053.66,253.186 1067.83,253.186L1241.72,253.186C1255.88,253.186 1267.47,264.775 1267.47,278.939L1267.47,282.988C1267.47,297.153 1255.88,308.742 1241.72,308.742Z" style="fill:rgb(43,71,139);fill-rule:nonzero;"/>
        <path d="M1523.61,770.029L1512.13,774.394L1434.9,803.742C1433.09,804.43 1431.25,805.017 1429.42,805.477C1403.85,812.124 1376.64,798.492 1367.05,773.257L1365.92,770.291C1355.64,743.247 1369.36,712.71 1396.4,702.434L1468.4,675.077L1473.63,673.085L1485.12,668.721C1512.16,658.445 1542.69,672.162 1552.96,699.207L1554.1,702.172C1564.37,729.217 1550.66,759.753 1523.61,770.029Z" style="fill:rgb(255,178,125);fill-rule:nonzero;"/>
        <path d="M1460.89,771.801C1448.01,776.686 1424.67,785.353 1412.19,787.146C1408.66,787.654 1402.15,785.734 1396.08,779.085C1392.44,775.104 1388.96,769.43 1386.37,761.566C1385.16,757.868 1384.16,754.184 1383.73,750.386C1383.25,745.939 1383.38,741.493 1384.16,737.088C1384.86,733.121 1387.57,729.507 1391.52,727.602C1391.54,727.587 1391.57,727.587 1391.58,727.573C1404.85,721.235 1422.74,713.513 1438.42,709.208C1449.26,706.215 1460.23,711 1463.66,720.487L1465.28,724.919L1473.57,747.619C1477,757.049 1471.42,767.834 1460.89,771.801Z" style="fill:rgb(255,211,182);fill-rule:nonzero;"/>
        <path d="M1460.89,771.801C1448.01,776.686 1424.67,785.353 1412.19,787.146C1408.66,787.654 1402.15,785.734 1396.08,779.085C1395.44,777.575 1394.84,775.979 1394.28,774.271C1393.06,770.573 1392.06,766.889 1391.64,763.091C1391.16,758.645 1391.29,754.197 1392.06,749.793C1392.77,745.826 1395.48,742.212 1399.43,740.307C1399.44,740.292 1399.47,740.292 1399.49,740.278C1412.76,733.94 1430.64,726.218 1446.33,721.913C1453.27,719.993 1460.26,721.263 1465.28,724.919L1473.57,747.619C1477,757.049 1471.42,767.834 1460.89,771.801Z" style="fill:rgb(255,193,151);fill-rule:nonzero;"/>
        <path d="M1488.57,878.608L1429.01,894.822C1410.91,899.749 1392.08,888.974 1387.15,870.876L1385.31,864.135C1380.39,846.039 1391.16,827.201 1409.26,822.274L1468.82,806.06C1486.91,801.133 1505.75,811.909 1510.68,830.005L1512.51,836.747C1517.44,854.843 1506.66,873.681 1488.57,878.608Z" style="fill:rgb(255,178,125);fill-rule:nonzero;"/>
        <path d="M1456.36,875.686C1445.42,878.608 1425.65,883.761 1415.28,884.325C1411.51,884.537 1403.96,881.347 1399.04,871.437C1397.82,869.037 1396.79,866.256 1395.99,863.037C1395.27,860.115 1394.71,857.221 1394.66,854.285C1394.59,850.826 1395.03,847.424 1395.99,844.093C1396.85,841.086 1399.35,838.488 1402.72,837.289C1402.75,837.274 1402.76,837.274 1402.78,837.26C1414.13,833.251 1429.37,828.465 1442.56,826.165C1451.66,824.569 1460.3,828.945 1462.43,836.456L1463.97,841.82L1468.56,857.927C1470.68,865.38 1465.3,873.314 1456.36,875.686Z" style="fill:rgb(255,211,182);fill-rule:nonzero;"/>
        <path d="M1456.36,875.686C1445.42,878.608 1425.65,883.761 1415.28,884.325C1411.51,884.537 1403.96,881.347 1399.04,871.437C1398.37,868.712 1397.89,865.987 1397.83,863.221C1397.76,859.776 1398.2,856.36 1399.16,853.028C1400.02,850.036 1402.52,847.424 1405.9,846.224C1405.92,846.21 1405.94,846.21 1405.95,846.196C1417.3,842.187 1432.55,837.401 1445.73,835.114C1453.27,833.787 1460.5,836.568 1463.97,841.82L1468.56,857.927C1470.68,865.38 1465.3,873.314 1456.36,875.686Z" style="fill:rgb(255,193,151);fill-rule:nonzero;"/>
        <path d="M512.935,1563.64C512.935,1563.64 635.521,1681.05 718.16,1726.38L780.728,1682L780.728,1747.47C780.728,1747.47 903.779,1769.23 942.593,1747.47L942.593,1568.94L596.975,1395.68L512.935,1563.64Z" style="fill:rgb(19,156,141);fill-rule:nonzero;"/>
        <path d="M968.701,1733.26C921.092,1743.03 818.479,1705.63 818.479,1705.63L835.029,1545.77L719.074,1678.56C660.064,1656.6 567.774,1599.3 512.939,1563.64C485.639,1545.88 467.618,1533.49 467.618,1533.49C544.997,1408.97 622.834,1292.51 622.834,1292.51C645.68,1338.22 699.752,1377.9 758.369,1409.65C855.776,1462.41 965.728,1493.23 965.728,1493.23C965.694,1588.24 968.701,1733.26 968.701,1733.26Z" style="fill:rgb(220,234,255);fill-rule:nonzero;"/>
        <path d="M1521.73,655.889C1521.31,656.044 1520.88,656.186 1520.45,656.327L1442.37,676.372C1408.04,685.195 1372.53,666.618 1363.47,635.095L1358.83,618.945C1350.12,588.679 1368.83,557.03 1400.74,546.767L1426.52,540.146L1478.82,526.721C1513.15,517.898 1548.65,536.476 1557.71,567.999L1562.36,584.148C1570.94,614.005 1552.84,645.188 1521.73,655.889Z" style="fill:rgb(255,178,125);fill-rule:nonzero;"/>
        <path d="M1485.95,634.093L1448.02,651.188C1447.96,651.202 1447.89,651.216 1447.78,651.245C1446.26,651.654 1444.72,651.964 1443.19,652.19C1442.56,652.289 1441.91,652.36 1441.27,652.43C1441,652.458 1440.74,652.458 1440.47,652.444C1436.29,652.303 1433.42,647.871 1435.23,643.918C1438.82,636.111 1439.79,627.077 1437.38,618.197L1436.47,614.894C1436.47,614.866 1436.46,614.823 1436.44,614.795L1433.51,604.024C1431.18,595.441 1426.22,588.256 1419.76,583.061C1418.98,582.426 1418.18,581.833 1417.36,581.268C1409.86,576.073 1411.77,564.314 1420.55,561.872C1420.63,561.844 1420.7,561.83 1420.79,561.801L1462.42,555.505C1472.71,552.71 1482.62,560.629 1485.43,570.92L1488.77,583.188L1495.89,609.346C1498.68,619.651 1496.24,631.298 1485.95,634.093Z" style="fill:rgb(255,211,182);fill-rule:nonzero;"/>
        <path d="M1485.95,634.093L1448.02,651.188C1447.96,651.202 1447.89,651.216 1447.78,651.245C1446.89,651.414 1444.11,651.88 1440.47,652.444C1436.29,652.303 1433.42,647.871 1435.23,643.918C1438.82,636.111 1439.79,627.077 1437.38,618.197L1436.47,614.894C1436.47,614.866 1436.46,614.823 1436.44,614.795L1433.51,604.024C1431.18,595.441 1426.22,588.256 1419.76,583.061C1421.1,581.099 1423.1,579.546 1425.73,578.812C1425.8,578.784 1425.88,578.77 1425.97,578.741L1467.6,572.445C1476.27,570.088 1484.65,575.339 1488.77,583.188L1495.89,609.346C1498.68,619.651 1496.24,631.298 1485.95,634.093Z" style="fill:rgb(255,193,151);fill-rule:nonzero;"/>
        <path d="M860.625,1062.02C860.625,1062.02 843.591,913.328 827.875,884.338C812.159,855.336 798.861,797.273 823.04,754.127C847.218,710.969 855.571,627.954 855.571,627.954C864.952,722.72 836.749,793.066 856.526,811.695C857.264,812.384 858.629,812.058 860.564,810.825L860.625,1062.02Z" style="fill:rgb(239,162,111);fill-rule:nonzero;"/>
        <path d="M649.523,819.84L1241.08,819.84C1261.62,819.84 1278.27,803.192 1278.27,782.657L1278.27,545.736C1278.27,525.2 1261.62,508.552 1241.08,508.552L649.523,508.552C628.987,508.552 612.339,525.2 612.339,545.736L612.339,782.657C612.339,803.192 628.987,819.84 649.523,819.84Z" style="fill:rgb(194,247,241);fill-rule:nonzero;"/>
        <path d="M1245.23,469.13L1013.68,469.13C996.505,469.13 982.58,455.204 982.58,438.025L982.58,394.11C982.58,376.932 996.505,363.006 1013.68,363.006L1245.23,363.006C1262.41,363.006 1276.33,376.932 1276.33,394.11L1276.33,438.025C1276.33,455.204 1262.41,469.13 1245.23,469.13Z" style="fill:rgb(154,191,246);fill-rule:nonzero;"/>
        <path d="M1235.07,1247.2L968.131,1247.2C947.56,1247.2 930.884,1230.52 930.884,1209.95L930.884,1153.52C930.884,1132.95 947.56,1116.28 968.131,1116.28L1235.07,1116.28C1255.65,1116.28 1272.32,1132.95 1272.32,1153.52L1272.32,1209.95C1272.32,1230.52 1255.65,1247.2 1235.07,1247.2Z" style="fill:rgb(154,191,246);fill-rule:nonzero;"/>
        <path d="M1338.83,1062.02L1086.64,1062.02C1061.99,1062.02 1042.01,1042.04 1042.01,1017.4L1042.01,918.72C1042.01,894.074 1061.99,874.095 1086.64,874.095L1338.83,874.095C1363.47,874.095 1383.45,894.074 1383.45,918.72L1383.45,1017.4C1383.45,1042.04 1363.47,1062.02 1338.83,1062.02Z" style="fill:rgb(19,156,141);fill-rule:nonzero;"/>
        <path d="M2051.81,2000L1591.75,2000C1569.69,1985.21 1455.12,1907.06 1407.71,1848.8C1397.67,1836.45 1360.92,1730.05 1332.68,1643.66C1315.05,1589.7 1300.73,1543.52 1298.31,1532.93C1297.47,1529.24 1296.91,1521.93 1296.57,1512.03L1296.57,1511.93C1295.37,1476.6 1297.01,1408.47 1298.7,1354.35L1298.71,1354.1L1298.74,1353.39C1298.82,1351.01 1298.89,1348.67 1298.97,1346.35L1298.97,1346.27C1298.98,1346.04 1298.98,1345.8 1298.99,1345.57C1299.3,1336.17 1299.6,1327.31 1299.88,1319.25C1300.59,1299.11 1301.19,1283.96 1301.44,1278.03L1301.54,1275.27C1301.54,1275.27 1301.55,1275.27 1301.56,1275.26C1302.29,1274.85 1324.42,1263.04 1354,1284.35C1361.14,1289.5 1367.74,1301.94 1373.76,1318.17C1377.61,1328.53 1381.22,1340.43 1384.58,1352.97C1397.5,1401.2 1406.77,1458.86 1411.72,1474.3C1419.7,1499.25 1513.76,1608.97 1519.64,1615.79C1519.73,1615.91 1519.83,1616.02 1519.92,1616.13L1519.92,1442.86L1448.91,1252.86L1419.76,1174.86L1405.11,1135.66C1405.11,1135.66 1382.64,1098.77 1363.79,1054.39C1355.54,1034.97 1347.98,1014.12 1343.3,994.3C1342.18,989.58 1341.23,984.91 1340.47,980.34L1340.47,980.32C1337.7,963.57 1337.51,948.03 1341.36,935.38C1348.23,912.85 1363.71,908.61 1375.6,909.07C1376.83,909.11 1378.02,909.22 1379.17,909.35C1380.33,909.49 1381.48,909.71 1382.59,910.01C1384.68,910.56 1386.66,911.4 1388.5,912.47C1388.52,912.47 1388.52,912.48 1388.53,912.49C1391.58,914.27 1394.21,916.72 1396.25,919.71C1396.25,919.71 1406.29,932.82 1419.76,950.44C1428.62,962.04 1438.97,975.59 1448.91,988.65C1466.61,1011.92 1483.05,1033.63 1487.57,1039.99C1512,1074.38 1577.78,1186.45 1577.78,1186.45L1654.78,1189.68C1666.98,1190.19 1678.59,1195.05 1687.51,1203.38C1714.89,1228.95 1773.92,1284.28 1781.16,1292.51C1781.16,1295.21 1827.03,1317.27 1862.47,1336.91C1887.82,1347.62 1935.97,1385.58 1935.97,1385.58C1945.95,1394.39 1953.55,1403.16 1957.4,1411.54C1973.91,1447.47 2018.69,1759.96 2040.1,1914.44C2046.99,1964.1 2051.46,1997.43 2051.81,2000Z" style="fill:rgb(255,178,125);fill-rule:nonzero;"/>
        <path d="M1577.78,1186.45C1577.78,1186.45 1649.11,1302.89 1658.55,1308.13C1668,1313.38 1704.71,1320.72 1708.91,1308.13C1713.1,1295.54 1577.78,1186.45 1577.78,1186.45Z" style="fill:rgb(239,162,111);fill-rule:nonzero;"/>
        <path d="M1936.33,1385.9C1936.21,1385.79 1936.09,1385.69 1935.97,1385.58C1935.97,1385.58 1887.82,1347.62 1862.47,1336.91C1829.93,1318.87 1788.61,1298.81 1782.06,1293.55C1789.61,1302.19 1842.73,1362.31 1863.18,1366.81C1881.13,1370.77 1921.9,1381.92 1936.33,1385.9Z" style="fill:rgb(239,162,111);fill-rule:nonzero;"/>
        <path d="M1519.92,1616.13L1519.92,1442.86C1519.92,1442.86 1561.08,1511.71 1564.23,1549.48C1567.38,1587.23 1547.13,1648.37 1519.92,1616.13Z" style="fill:rgb(239,162,111);fill-rule:nonzero;"/>
        <path d="M1370.57,980.292C1364.55,969.972 1353.77,951.259 1350.06,940.791C1349.02,937.831 1349.15,931.909 1352.79,925.599C1354.96,921.814 1358.4,917.889 1363.59,914.388C1366.03,912.742 1368.5,911.281 1371.17,910.301C1374.29,909.167 1377.53,908.556 1380.87,908.511C1383.88,908.478 1387.01,910.229 1389.16,913.328C1389.17,913.337 1389.17,913.362 1389.19,913.372C1396.33,923.785 1405.37,937.954 1411.52,950.777C1415.77,959.639 1414.43,969.871 1408.23,974.365L1405.33,976.482L1390.51,987.304C1384.35,991.789 1375.47,988.729 1370.57,980.292Z" style="fill:rgb(255,211,182);fill-rule:nonzero;"/>
        <path d="M1370.57,980.292C1364.55,969.972 1353.77,951.259 1350.06,940.791C1349.02,937.831 1349.15,931.909 1352.79,925.599C1353.75,924.794 1354.79,924.024 1355.92,923.261C1358.36,921.615 1360.83,920.154 1363.5,919.174C1366.63,918.04 1369.87,917.429 1373.2,917.385C1376.21,917.351 1379.35,919.102 1381.49,922.201C1381.5,922.211 1381.51,922.235 1381.52,922.245C1388.67,932.658 1397.71,946.827 1403.85,959.65C1406.58,965.327 1407.01,971.558 1405.33,976.482L1390.51,987.304C1384.35,991.789 1375.47,988.729 1370.57,980.292Z" style="fill:rgb(255,193,151);fill-rule:nonzero;"/>
        <path d="M1772.33,536.172L1675.89,536.172C1650.52,536.172 1629.76,515.415 1629.76,490.044L1629.76,410.604C1629.76,385.233 1650.52,364.476 1675.89,364.476L1772.33,364.476C1797.7,364.476 1818.45,385.233 1818.45,410.604L1818.45,490.044C1818.45,515.415 1797.7,536.172 1772.33,536.172Z" style="fill:rgb(223,235,253);fill-rule:nonzero;"/>
        <path d="M1673.96,448.916C1679.2,462.729 1724.13,499.007 1724.13,499.007C1724.13,499.007 1738.78,487.109 1752.34,474.294C1762.49,464.81 1771.98,454.823 1774.23,448.916C1779.55,435.187 1773.89,415.549 1754.26,412.222C1734.7,408.892 1724.13,429.363 1724.13,429.363C1724.13,429.363 1713.57,408.892 1693.93,412.222C1690.52,412.805 1687.52,413.886 1684.94,415.385C1672.71,422.206 1669.63,437.601 1673.96,448.916Z" style="fill:rgb(19,156,141);fill-rule:nonzero;"/>
        <path d="M221.449,983.336L510.364,983.336C533.395,983.336 552.238,1002.18 552.238,1025.21L552.238,1151.96C552.238,1173.12 534.93,1190.42 513.776,1190.42L506.354,1190.42L520.274,1249.22L432.884,1190.42L218.955,1190.42C195.944,1190.42 177.117,1171.6 177.117,1148.59L177.117,1027.67C177.117,1003.29 197.066,983.336 221.449,983.336Z" style="fill:rgb(19,156,141);fill-opacity:0.45;fill-rule:nonzero;"/>
        <path d="M213.696,1075.34L514.945,1075.34C519.049,1075.34 522.406,1071.98 522.406,1067.88C522.406,1063.78 519.049,1060.42 514.945,1060.42L213.696,1060.42C209.594,1060.42 206.236,1063.78 206.236,1067.88C206.236,1071.98 209.594,1075.34 213.696,1075.34Z" style="fill:rgb(0,82,73);fill-opacity:0.55;fill-rule:nonzero;"/>
        <path d="M213.696,1108.73L514.945,1108.73C519.049,1108.73 522.406,1105.38 522.406,1101.27C522.406,1097.17 519.049,1093.81 514.945,1093.81L213.696,1093.81C209.594,1093.81 206.236,1097.17 206.236,1101.27C206.236,1105.38 209.594,1108.73 213.696,1108.73Z" style="fill:rgb(0,82,73);fill-opacity:0.55;fill-rule:nonzero;"/>
        <path d="M213.696,1142.13L514.945,1142.13C519.049,1142.13 522.406,1138.77 522.406,1134.67C522.406,1130.56 519.049,1127.21 514.945,1127.21L213.696,1127.21C209.594,1127.21 206.236,1130.56 206.236,1134.67C206.236,1138.77 209.594,1142.13 213.696,1142.13Z" style="fill:rgb(0,82,73);fill-opacity:0.55;fill-rule:nonzero;"/>
        <path d="M377.82,1023.47L505.709,1023.47C510.594,1023.47 514.59,1019.48 514.59,1014.59C514.59,1009.71 510.594,1005.71 505.709,1005.71L377.82,1005.71C372.936,1005.71 368.939,1009.71 368.939,1014.59C368.939,1019.48 372.936,1023.47 377.82,1023.47Z" style="fill:rgb(0,82,73);fill-opacity:0.55;fill-rule:nonzero;"/>
        <path d="M267.914,1023.47L344.868,1023.47C348.729,1023.47 351.888,1020.32 351.888,1016.46L351.888,1012.73C351.888,1008.87 348.729,1005.71 344.868,1005.71L267.914,1005.71C264.053,1005.71 260.894,1008.87 260.894,1012.73L260.894,1016.46C260.894,1020.32 264.053,1023.47 267.914,1023.47Z" style="fill:rgb(0,82,73);fill-opacity:0.55;fill-rule:nonzero;"/>
        <path d="M1673.14,1047.62L1854.86,1107.03L1746.01,1000.94L1734.96,1026.86L1688.18,1027.09L1673.14,1047.62Z" style="fill:rgb(164,200,250);fill-rule:nonzero;"/>
        <path d="M1854.86,1107.03L1713.83,999.746L1563.15,965.33L1854.86,1107.03Z" style="fill:rgb(229,229,229);fill-rule:nonzero;"/>
        <path d="M1746.01,1000.94L1854.86,1107.03L1782.3,958.405L1746.01,1000.94Z" style="fill:rgb(164,200,250);fill-rule:nonzero;"/>
        <path d="M601.6,370.654L431.747,394.883L544.463,318.057L550.195,342.686L591.501,350.167L601.6,370.654Z" style="fill:rgb(158,195,246);fill-rule:nonzero;"/>
        <path d="M431.747,394.883L573.092,322.009L711.625,315.041L431.747,394.883Z" style="fill:rgb(229,229,229);fill-rule:nonzero;"/>
        <path d="M544.463,318.057L431.747,394.883L519.004,274.813L544.463,318.057Z" style="fill:rgb(229,229,229);fill-rule:nonzero;"/>
        <path d="M868.27,652.453C868.27,674.612 860.81,695.021 848.24,711.313C844.072,716.723 839.343,721.674 834.143,726.078C817.327,740.345 795.56,748.942 771.78,748.942C750.169,748.942 730.231,741.848 714.147,729.84C707.053,724.562 700.716,718.316 695.32,711.313C682.751,695.021 675.29,674.612 675.29,652.453C675.29,599.158 718.485,555.962 771.78,555.962C825.075,555.962 868.27,599.158 868.27,652.453Z" style="fill:white;fill-rule:nonzero;"/>
        <path d="M810.548,698.06C810.288,697.77 810.038,697.5 809.798,697.25C808.688,696.4 807.578,695.87 803.118,695.1C800.848,694.72 797.698,694.27 793.229,693.69C793.229,693.69 792.269,693.58 791.758,693.54C791.418,693.51 791.059,693.48 790.638,693.44C789.358,692.77 789.028,687.46 789.038,681.86C789.038,681.44 789.048,681.02 789.048,680.6C789.068,678.48 789.138,676.39 789.218,674.51C789.218,674.39 789.229,674.28 789.229,674.16C791.988,674.39 793.818,674.37 793.818,674.37C798.958,673.96 802.168,660.18 803.318,649.04C803.318,649.04 805.858,642.93 805.858,636.32C805.858,632.6 805.059,628.73 802.559,625.69C801.258,624.13 800.059,623.1 798.948,622.45C798.628,622.13 798.298,621.84 797.979,621.56C800.425,613.606 773.758,596.35 760.998,607.86C760.668,606.71 756.519,593.79 736.398,598.02C737.648,597.89 746.568,597.05 749.148,600.66C748.798,600.51 741.008,597.05 736.098,600.07C733.828,601.45 732.418,604.32 731.618,607.34C731.608,607.36 731.608,607.38 731.598,607.4C731.598,607.42 731.588,607.43 731.588,607.45L731.588,607.46C731.578,607.49 731.568,607.52 731.568,607.55C731.479,607.96 731.378,608.37 731.288,608.78C731.278,608.84 731.258,608.9 731.248,608.97C731.248,608.99 731.238,609 731.238,609.02L731.238,609.04C730.638,612.16 725.526,615.19 725.886,616.66C726.636,619.81 724.345,622.31 723.775,625.946C723.199,629.613 718.898,631.832 721.064,638.595C723.616,644.267 720.964,651.051 721.917,655.006C723.542,661.746 727.584,663.96 727.32,665.208C723.411,683.598 755.231,680.928 761.561,677.468C765.621,675.258 765.448,667.41 765.448,667.41L765.468,667.38C764.868,680.83 761.178,689.61 758.438,691.8C757.458,691.91 755.338,692.17 752.688,692.59L752.688,692.58C752.688,692.58 743.358,693.6 736.258,696.69C736.198,696.71 736.148,696.73 736.088,696.76C734.468,697.43 733.088,698.18 732.059,699C732.048,699.02 732.038,699.03 732.028,699.03L732.028,699.04C731.488,699.46 731.048,699.91 730.729,700.39C730.559,700.59 730.418,700.79 730.309,701C727.938,705.52 725.548,712.31 723.258,720.27C736.898,730.45 753.809,736.47 772.138,736.47C792.309,736.47 810.769,729.18 825.028,717.08C819.788,706.16 813.809,700.53 810.548,698.06Z" style="fill:rgb(19,156,141);fill-rule:nonzero;"/>
        <path d="M1043.96,603.843L934.347,603.843C930.546,603.843 927.437,600.733 927.437,596.933L927.437,593.637C927.437,589.837 930.546,586.728 934.347,586.728L1043.96,586.728C1047.76,586.728 1050.86,589.837 1050.86,593.637L1050.86,596.933C1050.86,600.733 1047.76,603.843 1043.96,603.843Z" style="fill-rule:nonzero;"/>
        <path d="M1045.28,665.366L933.014,665.366C929.945,665.366 927.435,662.855 927.435,659.787C927.435,656.718 929.945,654.208 933.014,654.208L1045.28,654.208C1048.35,654.208 1050.86,656.718 1050.86,659.787C1050.86,662.855 1048.35,665.366 1045.28,665.366Z" style="fill-rule:nonzero;"/>
        <path d="M995.583,691.773L931.708,691.773C929.358,691.773 927.435,689.85 927.435,687.499L927.435,684.888C927.435,682.538 929.358,680.615 931.708,680.615L995.583,680.615C997.934,680.615 999.856,682.538 999.856,684.888L999.856,687.499C999.856,689.85 997.934,691.773 995.583,691.773Z" style="fill-rule:nonzero;"/>
        <path d="M1125.76,691.773L1022.55,691.773C1019.6,691.773 1017.19,689.361 1017.19,686.413L1017.19,685.975C1017.19,683.027 1019.6,680.615 1022.55,680.615L1125.76,680.615C1128.71,680.615 1131.12,683.027 1131.12,685.975L1131.12,686.413C1131.12,689.361 1128.71,691.773 1125.76,691.773Z" style="fill-rule:nonzero;"/>
        <path d="M1222.2,665.366L1074.99,665.366C1071.92,665.366 1069.41,662.855 1069.41,659.787C1069.41,656.718 1071.92,654.208 1074.99,654.208L1222.2,654.208C1225.26,654.208 1227.78,656.718 1227.78,659.787C1227.78,662.855 1225.26,665.366 1222.2,665.366Z" style="fill-rule:nonzero;"/>
        <path d="M1045.28,718.18L933.014,718.18C929.945,718.18 927.435,715.669 927.435,712.601C927.435,709.532 929.945,707.022 933.014,707.022L1045.28,707.022C1048.35,707.022 1050.86,709.532 1050.86,712.601C1050.86,715.669 1048.35,718.18 1045.28,718.18Z" style="fill-rule:nonzero;"/>
        <path d="M1222.2,718.18L1074.99,718.18C1071.92,718.18 1069.41,715.669 1069.41,712.601C1069.41,709.532 1071.92,707.022 1074.99,707.022L1222.2,707.022C1225.26,707.022 1227.78,709.532 1227.78,712.601C1227.78,715.669 1225.26,718.18 1222.2,718.18Z" style="fill-rule:nonzero;"/>
        <path d="M1150.79,603.843L1072.07,603.843C1068.82,603.843 1066.15,601.179 1066.15,597.924L1066.15,592.646C1066.15,589.391 1068.82,586.728 1072.07,586.728L1150.79,586.728C1154.05,586.728 1156.71,589.391 1156.71,592.646L1156.71,597.924C1156.71,601.179 1154.05,603.843 1150.79,603.843Z" style="fill-rule:nonzero;"/>
        <path d="M1051.54,1153.47L973.611,1153.47C970.91,1153.47 968.699,1151.26 968.699,1148.56L968.699,1146.22C968.699,1143.51 970.91,1141.3 973.611,1141.3L1051.54,1141.3C1054.24,1141.3 1056.45,1143.51 1056.45,1146.22L1056.45,1148.56C1056.45,1151.26 1054.24,1153.47 1051.54,1153.47Z" style="fill:rgb(105,157,238);fill-rule:nonzero;"/>
        <path d="M1052.48,1184.63L972.664,1184.63C970.482,1184.63 968.697,1182.84 968.697,1180.66C968.697,1178.48 970.482,1176.69 972.664,1176.69L1052.48,1176.69C1054.66,1176.69 1056.45,1178.48 1056.45,1180.66C1056.45,1182.84 1054.66,1184.63 1052.48,1184.63Z" style="fill:rgb(105,157,238);fill-rule:nonzero;"/>
        <path d="M1017.15,1203.4L971.736,1203.4C970.064,1203.4 968.697,1202.03 968.697,1200.36L968.697,1198.5C968.697,1196.83 970.064,1195.47 971.736,1195.47L1017.15,1195.47C1018.82,1195.47 1020.19,1196.83 1020.19,1198.5L1020.19,1200.36C1020.19,1202.03 1018.82,1203.4 1017.15,1203.4Z" style="fill:rgb(105,157,238);fill-rule:nonzero;"/>
        <path d="M1109.7,1203.4L1036.32,1203.4C1034.22,1203.4 1032.51,1201.68 1032.51,1199.59L1032.51,1199.28C1032.51,1197.18 1034.22,1195.47 1036.32,1195.47L1109.7,1195.47C1111.8,1195.47 1113.51,1197.18 1113.51,1199.28L1113.51,1199.59C1113.51,1201.68 1111.8,1203.4 1109.7,1203.4Z" style="fill:rgb(105,157,238);fill-rule:nonzero;"/>
        <path d="M1178.26,1184.63L1073.6,1184.63C1071.42,1184.63 1069.64,1182.84 1069.64,1180.66C1069.64,1178.48 1071.42,1176.69 1073.6,1176.69L1178.26,1176.69C1180.44,1176.69 1182.23,1178.48 1182.23,1180.66C1182.23,1182.84 1180.44,1184.63 1178.26,1184.63Z" style="fill:rgb(105,157,238);fill-rule:nonzero;"/>
        <path d="M1052.48,1222.17L972.664,1222.17C970.482,1222.17 968.697,1220.39 968.697,1218.21C968.697,1216.03 970.482,1214.24 972.664,1214.24L1052.48,1214.24C1054.66,1214.24 1056.45,1216.03 1056.45,1218.21C1056.45,1220.39 1054.66,1222.17 1052.48,1222.17Z" style="fill:rgb(105,157,238);fill-rule:nonzero;"/>
        <path d="M1178.26,1222.17L1073.6,1222.17C1071.42,1222.17 1069.64,1220.39 1069.64,1218.21C1069.64,1216.03 1071.42,1214.24 1073.6,1214.24L1178.26,1214.24C1180.44,1214.24 1182.23,1216.03 1182.23,1218.21C1182.23,1220.39 1180.44,1222.17 1178.26,1222.17Z" style="fill:rgb(105,157,238);fill-rule:nonzero;"/>
        <path d="M1127.5,1153.47L1071.53,1153.47C1069.21,1153.47 1067.32,1151.58 1067.32,1149.26L1067.32,1145.51C1067.32,1143.2 1069.21,1141.3 1071.53,1141.3L1127.5,1141.3C1129.81,1141.3 1131.71,1143.2 1131.71,1145.51L1131.71,1149.26C1131.71,1151.58 1129.81,1153.47 1127.5,1153.47Z" style="fill:rgb(105,157,238);fill-rule:nonzero;"/>
        <path d="M1103.23,395.646L1025.31,395.646C1022.6,395.646 1020.39,393.435 1020.39,390.733L1020.39,388.39C1020.39,385.688 1022.6,383.477 1025.31,383.477L1103.23,383.477C1105.94,383.477 1108.15,385.688 1108.15,388.39L1108.15,390.733C1108.15,393.435 1105.94,395.646 1103.23,395.646Z" style="fill:rgb(105,157,238);fill-rule:nonzero;"/>
        <path d="M1104.18,426.798L1024.36,426.798C1022.18,426.798 1020.39,425.013 1020.39,422.832C1020.39,420.65 1022.18,418.865 1024.36,418.865L1104.18,418.865C1106.36,418.865 1108.15,420.65 1108.15,422.832C1108.15,425.013 1106.36,426.798 1104.18,426.798Z" style="fill:rgb(105,157,238);fill-rule:nonzero;"/>
        <path d="M1068.84,445.573L1023.43,445.573C1021.76,445.573 1020.39,444.206 1020.39,442.534L1020.39,440.678C1020.39,439.007 1021.76,437.64 1023.43,437.64L1068.84,437.64C1070.51,437.64 1071.88,439.007 1071.88,440.678L1071.88,442.534C1071.88,444.206 1070.51,445.573 1068.84,445.573Z" style="fill:rgb(105,157,238);fill-rule:nonzero;"/>
        <path d="M1161.4,445.573L1088.01,445.573C1085.92,445.573 1084.2,443.858 1084.2,441.762L1084.2,441.451C1084.2,439.354 1085.92,437.64 1088.01,437.64L1161.4,437.64C1163.49,437.64 1165.21,439.354 1165.21,441.451L1165.21,441.762C1165.21,443.858 1163.49,445.573 1161.4,445.573Z" style="fill:rgb(105,157,238);fill-rule:nonzero;"/>
        <path d="M1229.96,426.798L1125.3,426.798C1123.12,426.798 1121.33,425.013 1121.33,422.832C1121.33,420.65 1123.12,418.865 1125.3,418.865L1229.96,418.865C1232.14,418.865 1233.92,420.65 1233.92,422.832C1233.92,425.013 1232.14,426.798 1229.96,426.798Z" style="fill:rgb(105,157,238);fill-rule:nonzero;"/>
        <path d="M1179.19,395.646L1123.22,395.646C1120.91,395.646 1119.02,393.752 1119.02,391.438L1119.02,387.685C1119.02,385.371 1120.91,383.477 1123.22,383.477L1179.19,383.477C1181.51,383.477 1183.4,385.371 1183.4,387.685L1183.4,391.438C1183.4,393.752 1181.51,395.646 1179.19,395.646Z" style="fill:rgb(105,157,238);fill-rule:nonzero;"/>
        <path d="M1172.12,921.86L1086.8,921.86C1083.84,921.86 1081.42,919.439 1081.42,916.481L1081.42,913.917C1081.42,910.958 1083.84,908.538 1086.8,908.538L1172.12,908.538C1175.07,908.538 1177.49,910.958 1177.49,913.917L1177.49,916.481C1177.49,919.439 1175.07,921.86 1172.12,921.86Z" style="fill:white;fill-rule:nonzero;"/>
        <path d="M1173.15,955.966L1085.76,955.966C1083.37,955.966 1081.42,954.012 1081.42,951.624C1081.42,949.235 1083.37,947.281 1085.76,947.281L1173.15,947.281C1175.54,947.281 1177.49,949.235 1177.49,951.624C1177.49,954.012 1175.54,955.966 1173.15,955.966Z" style="fill:white;fill-rule:nonzero;"/>
        <path d="M1134.46,976.52L1084.75,976.52C1082.92,976.52 1081.42,975.023 1081.42,973.194L1081.42,971.162C1081.42,969.332 1082.92,967.835 1084.75,967.835L1134.46,967.835C1136.29,967.835 1137.79,969.332 1137.79,971.162L1137.79,973.194C1137.79,975.023 1136.29,976.52 1134.46,976.52Z" style="fill:white;fill-rule:nonzero;"/>
        <path d="M1235.79,976.52L1155.45,976.52C1153.16,976.52 1151.28,974.643 1151.28,972.348L1151.28,972.007C1151.28,969.713 1153.16,967.835 1155.45,967.835L1235.79,967.835C1238.09,967.835 1239.96,969.713 1239.96,972.007L1239.96,972.348C1239.96,974.643 1238.09,976.52 1235.79,976.52Z" style="fill:white;fill-rule:nonzero;"/>
        <path d="M1310.85,955.966L1196.27,955.966C1193.88,955.966 1191.93,954.012 1191.93,951.624C1191.93,949.235 1193.88,947.281 1196.27,947.281L1310.85,947.281C1313.24,947.281 1315.19,949.235 1315.19,951.624C1315.19,954.012 1313.24,955.966 1310.85,955.966Z" style="fill:white;fill-rule:nonzero;"/>
        <path d="M1173.15,997.074L1085.76,997.074C1083.37,997.074 1081.42,995.12 1081.42,992.732C1081.42,990.343 1083.37,988.389 1085.76,988.389L1173.15,988.389C1175.54,988.389 1177.49,990.343 1177.49,992.732C1177.49,995.12 1175.54,997.074 1173.15,997.074Z" style="fill:white;fill-rule:nonzero;"/>
        <path d="M1310.85,997.074L1196.27,997.074C1193.88,997.074 1191.93,995.12 1191.93,992.732C1191.93,990.343 1193.88,988.389 1196.27,988.389L1310.85,988.389C1313.24,988.389 1315.19,990.343 1315.19,992.732C1315.19,995.12 1313.24,997.074 1310.85,997.074Z" style="fill:white;fill-rule:nonzero;"/>
        <path d="M1173.15,1018.47L1085.76,1018.47C1083.37,1018.47 1081.42,1016.52 1081.42,1014.13C1081.42,1011.74 1083.37,1009.79 1085.76,1009.79L1173.15,1009.79C1175.54,1009.79 1177.49,1011.74 1177.49,1014.13C1177.49,1016.52 1175.54,1018.47 1173.15,1018.47Z" style="fill:white;fill-rule:nonzero;"/>
        <path d="M1310.85,1018.47L1196.27,1018.47C1193.88,1018.47 1191.93,1016.52 1191.93,1014.13C1191.93,1011.74 1193.88,1009.79 1196.27,1009.79L1310.85,1009.79C1313.24,1009.79 1315.19,1011.74 1315.19,1014.13C1315.19,1016.52 1313.24,1018.47 1310.85,1018.47Z" style="fill:white;fill-rule:nonzero;"/>
        <path d="M1255.27,921.86L1194,921.86C1191.46,921.86 1189.39,919.787 1189.39,917.253L1189.39,913.145C1189.39,910.611 1191.46,908.538 1194,908.538L1255.27,908.538C1257.81,908.538 1259.88,910.611 1259.88,913.145L1259.88,917.253C1259.88,919.787 1257.81,921.86 1255.27,921.86Z" style="fill:white;fill-rule:nonzero;"/>
        <path d="M970.02,332.341L964.09,336.596L958.131,332.387C959.452,330.529 961.633,329.3 964.09,329.3C966.533,329.3 968.698,330.498 970.02,332.341Z" style="fill:white;fill-rule:nonzero;"/>
        <path d="M964.088,318.93C958.128,318.93 952.858,321.9 949.668,326.43L953.428,329.07C955.798,325.72 959.698,323.54 964.088,323.54C968.448,323.54 972.328,325.69 974.688,328.99L978.438,326.3C975.229,321.83 969.988,318.93 964.088,318.93Z" style="fill:white;fill-rule:nonzero;"/>
        <path d="M964.088,299.22C951.479,299.22 940.328,305.49 933.568,315.08L937.338,317.72C943.258,309.33 953.048,303.83 964.088,303.83C975.038,303.83 984.769,309.24 990.708,317.52L994.438,314.83C987.668,305.38 976.598,299.22 964.088,299.22Z" style="fill:white;fill-rule:nonzero;"/>
        <path d="M964.088,310.01C955.118,310.01 947.168,314.45 942.328,321.25L946.088,323.89C950.098,318.29 956.668,314.62 964.088,314.62C971.448,314.62 977.979,318.23 981.998,323.75L985.729,321.08C980.878,314.37 972.988,310.01 964.088,310.01Z" style="fill:white;fill-rule:nonzero;"/>
        <path d="M930.801,960.382C930.801,969.089 933.729,977.101 938.667,983.497C940.305,985.628 942.168,987.569 944.21,989.297C946.241,991.025 948.451,992.529 950.808,993.797C956.138,996.658 962.219,998.285 968.693,998.285C976.783,998.285 984.268,995.75 990.417,991.44C990.73,991.228 991.034,991.003 991.337,990.779C994.12,988.703 996.61,986.257 998.731,983.497C1003.67,977.101 1006.6,969.089 1006.6,960.382C1006.6,939.455 989.631,922.489 968.693,922.489C947.767,922.489 930.801,939.455 930.801,960.382Z" style="fill:white;fill-rule:nonzero;"/>
        <path d="M978.958,984.69L975.468,981.6C975.178,981.66 974.888,981.71 974.598,981.76C973.968,981.32 973.278,980.89 972.559,980.49C972.788,979.08 972.979,977.77 973.138,976.61C973.668,972.55 973.729,970.1 973.729,969.72C975.578,969.63 976.828,969.43 976.828,969.43C980.328,968.62 980.498,956.67 979.688,950.44C980.348,950.45 980.988,950.36 981.638,950.07C984.288,948.9 984.438,944.89 984.438,944.89C984.438,944.89 983.668,946.32 982.538,946.78C982.538,946.78 986.968,940.71 981.828,936.56C976.708,932.4 971.479,935.12 968.498,935.3C961.958,935.7 957.729,936.09 955.598,940.39C953.488,944.63 954.318,956.29 958.358,960.58C958.428,960.98 958.498,961.37 958.548,961.77C958.788,963.31 959.348,964.57 960.148,965.58C959.238,970.6 957.168,974.35 955.309,976.84C954.048,977.82 952.898,979.08 951.828,980.59C951.798,980.61 951.758,980.64 951.758,980.64C951.758,980.64 951.769,980.64 951.788,980.65C949.818,983.45 948.198,987.1 946.898,991.38C946.888,991.4 946.888,991.42 946.878,991.44C949.019,992.95 951.338,994.22 953.788,995.24C953.948,995.31 954.108,995.37 954.269,995.44C954.309,995.45 954.338,995.47 954.378,995.48C954.638,995.59 954.908,995.69 955.168,995.79C955.809,996.04 956.448,996.27 957.098,996.48C957.778,996.7 958.468,996.9 959.158,997.08C959.479,997.16 959.798,997.24 960.118,997.31C960.398,997.38 960.678,997.44 960.968,997.49C961.008,997.5 961.048,997.51 961.088,997.52C961.278,997.56 961.468,997.59 961.658,997.63C962.098,997.71 962.548,997.79 962.998,997.86C963.098,997.87 963.208,997.89 963.309,997.9C963.559,997.94 963.798,997.97 964.048,998C964.398,998.04 964.748,998.08 965.098,998.12C965.488,998.16 965.888,998.19 966.288,998.21C966.658,998.24 967.038,998.26 967.418,998.27C967.809,998.28 968.208,998.29 968.608,998.29C969.038,998.29 969.458,998.28 969.888,998.27C969.928,998.27 969.958,998.27 969.998,998.26C970.098,998.26 970.208,998.26 970.309,998.25C970.519,998.25 970.729,998.24 970.938,998.22C970.968,998.21 970.988,998.21 971.019,998.21C971.418,998.19 971.809,998.16 972.208,998.12C977.328,997.64 982.158,996.12 986.488,993.8C984.288,990.03 981.548,987.09 978.958,984.69Z" style="fill:rgb(105,157,238);fill-rule:nonzero;"/>
        <path d="M1302.88,1180.66C1302.88,1189.42 1305.83,1197.49 1310.8,1203.93C1312.45,1206.07 1314.32,1208.03 1316.38,1209.77C1323.03,1215.41 1331.64,1218.81 1341.04,1218.81C1349.58,1218.81 1357.47,1216.01 1363.83,1211.26C1366.63,1209.17 1369.14,1206.7 1371.27,1203.93C1376.24,1197.49 1379.19,1189.42 1379.19,1180.66C1379.19,1159.58 1362.11,1142.5 1341.04,1142.5C1319.96,1142.5 1302.88,1159.58 1302.88,1180.66Z" style="fill:white;fill-rule:nonzero;"/>
        <path d="M1360.54,1202.28C1360.49,1202.18 1360.43,1202.08 1360.35,1201.99C1360.2,1201.77 1359.99,1201.56 1359.74,1201.36L1359.73,1201.35C1359.25,1200.96 1358.6,1200.61 1357.85,1200.3C1357.82,1200.29 1357.8,1200.28 1357.77,1200.27C1354.46,1198.82 1350.11,1198.35 1350.11,1198.35C1348.87,1198.16 1347.89,1198.04 1347.43,1197.99C1346.15,1196.96 1344.43,1192.87 1344.15,1186.6L1344.16,1186.62C1344.16,1186.62 1345.59,1183.3 1347.48,1184.34C1350.43,1185.95 1356.13,1179.43 1354.31,1170.86C1354.11,1169.94 1353.87,1169.09 1353.61,1168.32C1354.23,1168.58 1354.92,1168.8 1355.57,1168.8C1357.28,1168.8 1359.87,1164.42 1360.22,1162.95C1360.58,1161.48 1360.19,1156.65 1357.84,1155.22C1355.55,1153.81 1351.92,1155.43 1351.76,1155.49C1352.93,1153.85 1356.93,1154.18 1357.66,1154.26C1348.32,1152.32 1346.39,1158.31 1346.23,1158.85C1340.29,1153.48 1331.22,1162.76 1328.99,1165.24C1328.84,1165.37 1328.69,1165.51 1328.54,1165.66C1328.03,1165.95 1327.46,1166.44 1326.86,1167.16C1325.69,1168.58 1325.32,1170.39 1325.32,1172.12C1325.32,1175.2 1326.5,1178.05 1326.5,1178.05C1327.04,1183.24 1328.54,1189.67 1330.94,1189.86C1330.94,1189.86 1331.79,1189.87 1333.07,1189.76C1333.07,1189.82 1333.08,1189.87 1333.08,1189.93C1333.12,1190.8 1333.15,1191.78 1333.16,1192.76L1333.16,1193.35C1333.17,1195.96 1333.01,1198.44 1332.42,1198.75C1332.22,1198.77 1332.05,1198.78 1331.9,1198.8C1331.66,1198.81 1331.21,1198.87 1331.21,1198.87C1329.13,1199.14 1327.65,1199.35 1326.6,1199.53C1324.52,1199.88 1324,1200.13 1323.49,1200.53C1323.37,1200.64 1323.25,1200.77 1323.13,1200.91C1321.61,1202.06 1318.82,1204.68 1316.38,1209.77C1323.03,1215.41 1331.64,1218.81 1341.04,1218.81C1349.59,1218.81 1357.47,1216.01 1363.83,1211.26C1362.76,1207.55 1361.65,1204.38 1360.54,1202.28Z" style="fill:rgb(19,156,141);fill-rule:nonzero;"/>
        <path d="M1302.88,413.792C1302.88,422.554 1305.83,430.625 1310.8,437.067C1312.45,439.206 1314.32,441.164 1316.38,442.905C1323.03,448.547 1331.64,451.946 1341.04,451.946C1349.58,451.946 1357.47,449.141 1363.83,444.393C1366.63,442.306 1369.14,439.836 1371.27,437.067C1376.24,430.625 1379.19,422.554 1379.19,413.792C1379.19,392.718 1362.11,375.638 1341.04,375.638C1319.96,375.638 1302.88,392.718 1302.88,413.792Z" style="fill:white;fill-rule:nonzero;"/>
        <path d="M1360.54,435.41C1360.49,435.31 1360.43,435.22 1360.35,435.12C1360.2,434.9 1359.99,434.69 1359.74,434.49L1359.73,434.48C1359.25,434.1 1358.6,433.75 1357.85,433.43C1357.82,433.42 1357.8,433.41 1357.77,433.4C1354.46,431.96 1350.11,431.48 1350.11,431.48L1350.11,431.49C1348.87,431.29 1347.89,431.17 1347.43,431.12C1347.12,430.87 1346.79,430.46 1346.46,429.87L1346.46,429.86C1345.4,428 1344.36,424.5 1344.15,419.73L1344.16,419.75C1344.16,419.75 1345.59,416.44 1347.48,417.47C1350.43,419.08 1356.13,412.57 1354.31,404C1354.11,403.07 1353.87,402.22 1353.61,401.45C1354.23,401.71 1354.92,401.93 1355.57,401.93C1357.28,401.93 1359.87,397.55 1360.22,396.09C1360.58,394.61 1360.19,389.78 1357.84,388.35C1355.55,386.95 1351.92,388.56 1351.76,388.63C1352.93,386.99 1356.94,387.32 1357.66,387.39C1348.32,385.45 1346.39,391.45 1346.23,391.98C1340.29,386.62 1331.22,395.9 1328.99,398.37C1328.84,398.5 1328.69,398.64 1328.54,398.79C1328.03,399.09 1327.46,399.57 1326.86,400.3C1325.69,401.71 1325.32,403.52 1325.32,405.25C1325.32,408.34 1326.5,411.18 1326.5,411.18C1327.04,416.38 1328.54,422.8 1330.94,422.99C1330.94,422.99 1331.79,423 1333.07,422.9C1333.07,422.95 1333.08,423 1333.08,423.06C1333.12,423.93 1333.15,424.91 1333.16,425.9L1333.16,426.49C1333.17,429.1 1333.01,431.57 1332.42,431.89C1332.22,431.9 1332.05,431.92 1331.9,431.93C1331.66,431.95 1331.21,432 1331.21,432C1329.13,432.27 1327.65,432.48 1326.6,432.66C1324.52,433.02 1324,433.26 1323.49,433.66C1323.37,433.78 1323.25,433.91 1323.13,434.04C1321.61,435.19 1318.82,437.82 1316.38,442.91C1316.74,443.22 1317.11,443.52 1317.49,443.81C1317.55,443.86 1317.62,443.91 1317.68,443.96C1317.96,444.18 1318.24,444.39 1318.53,444.59C1318.73,444.75 1318.93,444.9 1319.14,445.04C1319.35,445.19 1319.56,445.33 1319.77,445.46C1320.07,445.68 1320.38,445.88 1320.7,446.07C1320.91,446.21 1321.12,446.34 1321.34,446.47C1321.6,446.63 1321.87,446.79 1322.14,446.94C1322.44,447.11 1322.74,447.28 1323.04,447.44C1323.07,447.45 1323.09,447.47 1323.12,447.48C1323.13,447.49 1323.15,447.5 1323.17,447.51L1323.18,447.51C1323.22,447.53 1323.27,447.56 1323.31,447.58C1323.55,447.71 1323.79,447.83 1324.03,447.95C1324.05,447.95 1324.06,447.96 1324.08,447.97C1324.15,448.01 1324.23,448.05 1324.3,448.08C1324.43,448.15 1324.57,448.22 1324.71,448.28C1324.84,448.34 1324.97,448.4 1325.11,448.47C1325.41,448.61 1325.73,448.75 1326.04,448.88C1326.35,449.01 1326.67,449.14 1326.98,449.26C1327.13,449.32 1327.27,449.38 1327.41,449.43C1327.55,449.48 1327.69,449.54 1327.84,449.59C1328.13,449.7 1328.43,449.8 1328.72,449.9C1329.03,450.01 1329.33,450.1 1329.64,450.2C1329.9,450.28 1330.16,450.36 1330.42,450.44C1330.45,450.45 1330.47,450.45 1330.5,450.46C1330.66,450.51 1330.83,450.56 1331,450.6C1331.91,450.85 1332.84,451.07 1333.78,451.25C1334.19,451.33 1334.6,451.41 1335.01,451.47C1335.12,451.49 1335.22,451.51 1335.33,451.52C1335.35,451.52 1335.38,451.53 1335.4,451.53C1335.41,451.53 1335.43,451.53 1335.44,451.54C1335.71,451.58 1335.96,451.61 1336.24,451.64C1336.3,451.65 1336.35,451.66 1336.41,451.66C1336.45,451.67 1336.49,451.67 1336.53,451.68C1336.78,451.72 1337.03,451.74 1337.27,451.76C1337.31,451.76 1337.36,451.77 1337.4,451.77C1337.47,451.78 1337.55,451.79 1337.63,451.8C1338.08,451.84 1338.52,451.87 1338.97,451.89L1339.04,451.89C1339.18,451.9 1339.31,451.91 1339.46,451.91C1339.55,451.91 1339.63,451.92 1339.72,451.92C1340.16,451.94 1340.6,451.95 1341.04,451.95C1349.59,451.95 1357.47,449.14 1363.83,444.39C1362.76,440.68 1361.65,437.52 1360.54,435.41Z" style="fill:rgb(19,156,141);fill-rule:nonzero;"/>
        <path d="M1820.67,1928.85L1683.24,2000L1591.75,2000C1569.69,1985.21 1455.12,1907.06 1407.71,1848.8C1397.67,1836.45 1360.92,1730.05 1332.68,1643.66L1332.68,1643.62C1336.43,1655.09 1415.24,1822.94 1437.68,1842.02C1460.12,1861.09 1577.94,1972.18 1610.48,1971.05C1642,1969.97 1809.8,1931.35 1820.2,1928.96C1820.36,1928.93 1820.51,1928.89 1820.67,1928.85Z" style="fill:rgb(239,162,111);fill-rule:nonzero;"/>
        <path d="M2097.19,2000L1601.73,2000C1626.58,1990.25 1721.65,1953.93 1820.2,1928.96C1820.36,1928.93 1820.51,1928.89 1820.67,1928.85C1905.31,1907.44 1992.44,1894.46 2039.76,1913.93L2040.1,1914.44L2097.19,2000Z" style="fill:rgb(210,227,252);fill-rule:nonzero;"/>
        <path d="M1298.98,1345.57C1298.99,1345.57 1299,1345.57 1299.02,1345.55C1307.36,1342.49 1319.09,1340.47 1324.79,1350C1333.67,1364.82 1300.69,1495.58 1296.57,1512.03L1298.98,1345.57Z" style="fill:rgb(239,162,111);fill-rule:nonzero;"/>
        <path d="M1301.54,1275.26L1298.71,1354.35C1298.71,1354.35 1315.34,1357.06 1324.79,1350C1334.25,1342.94 1329.24,1274.33 1301.54,1275.26Z" style="fill:rgb(255,193,151);fill-rule:nonzero;"/>
        <path d="M968.701,1733.26C921.092,1743.03 818.479,1705.63 818.479,1705.63L835.029,1545.77L719.074,1678.56C660.064,1656.6 567.774,1599.3 512.939,1563.64C653.456,1548.32 758.369,1409.65 758.369,1409.65C855.776,1462.41 965.728,1493.23 965.728,1493.23C965.694,1588.24 968.701,1733.26 968.701,1733.26Z" style="fill:rgb(203,225,253);fill-rule:nonzero;"/>
        <path d="M641.986,1588.06C642.085,1577.4 650.806,1568.84 661.465,1568.94C672.124,1569.04 680.685,1577.76 680.586,1588.42C680.487,1599.08 671.767,1607.64 661.108,1607.54C650.449,1607.44 641.888,1598.72 641.986,1588.06Z" style="fill:rgb(19,156,141);fill-rule:nonzero;"/>
    </g>
</svg>
